<?xml version="1.0" standalone="no"?>
<!DOCTYPE svg PUBLIC "-//W3C//DTD SVG 20010904//EN"
 "http://www.w3.org/TR/2001/REC-SVG-20010904/DTD/svg10.dtd">
<svg version="1.0" xmlns="http://www.w3.org/2000/svg"
 width="1234.000000pt" height="1234.000000pt" viewBox="0 0 1234.000000 1234.000000"
 preserveAspectRatio="xMidYMid meet">
<metadata>
Created by potrace 1.11, written by Peter Selinger 2001-2013
</metadata>
<g transform="translate(0.000000,1234.000000) scale(0.100000,-0.100000)"
fill="#000000" stroke="none">
<path d="M6108 9875 c-1 -2 -43 -6 -93 -9 -49 -3 -101 -8 -115 -11 -14 -2 -45
-7 -70 -10 -56 -7 -86 -11 -125 -19 -16 -4 -46 -9 -65 -12 -19 -3 -53 -10 -75
-15 -47 -11 -76 -18 -109 -23 -13 -2 -32 -9 -43 -15 -11 -5 -23 -8 -26 -5 -3
3 -12 2 -19 -2 -14 -9 -15 -9 -63 -19 -16 -3 -35 -11 -42 -17 -7 -6 -13 -8
-13 -5 0 4 -19 -1 -42 -9 -24 -9 -50 -17 -59 -19 -8 -2 -32 -10 -52 -19 -20
-8 -37 -12 -37 -9 0 3 -6 1 -12 -4 -15 -12 -90 -38 -100 -35 -5 1 -8 -3 -8 -8
0 -5 -8 -10 -18 -10 -10 0 -28 -7 -40 -16 -12 -8 -22 -13 -22 -10 0 7 -95 -38
-117 -55 -14 -12 -16 -12 -8 0 5 9 -5 6 -22 -7 -17 -12 -33 -19 -37 -15 -3 3
-6 1 -6 -5 0 -7 -3 -12 -7 -11 -16 2 -53 -14 -53 -23 0 -5 -4 -6 -10 -3 -5 3
-10 1 -10 -6 0 -7 -3 -10 -6 -6 -3 3 -24 -5 -45 -19 -21 -13 -43 -24 -49 -24
-5 0 -10 -5 -10 -11 0 -5 -4 -8 -9 -4 -5 3 -17 -2 -25 -11 -9 -8 -16 -12 -16
-7 0 4 -4 3 -8 -3 -4 -6 -35 -26 -69 -44 -35 -19 -63 -37 -63 -42 0 -4 -5 -8
-11 -8 -12 0 -133 -80 -137 -92 -2 -4 -9 -8 -16 -8 -6 0 -25 -12 -42 -27 -16
-16 -34 -30 -39 -32 -6 -3 -14 -9 -20 -13 -5 -4 -39 -31 -75 -59 -36 -28 -68
-56 -72 -62 -4 -7 -8 -9 -8 -5 0 5 -18 -9 -39 -30 -22 -20 -68 -62 -102 -92
-75 -66 -80 -72 -98 -98 -8 -12 -18 -19 -23 -16 -4 3 -8 1 -8 -5 0 -5 -26 -36
-57 -68 -32 -33 -78 -84 -103 -114 -25 -29 -53 -61 -62 -71 -10 -10 -18 -22
-18 -28 0 -5 -3 -10 -8 -10 -4 0 -32 -33 -62 -72 -60 -80 -70 -95 -155 -218
-32 -47 -63 -88 -69 -92 -6 -4 -7 -8 -2 -8 6 0 1 -6 -9 -14 -11 -8 -30 -12
-43 -10 -23 5 -154 129 -145 138 3 2 -5 7 -16 11 -12 3 -21 13 -21 21 0 8 -4
14 -8 14 -4 0 -30 21 -58 48 -28 26 -79 72 -113 102 -35 30 -78 69 -96 85 -18
17 -63 57 -100 90 -37 33 -94 85 -125 115 -32 30 -72 66 -90 80 -17 14 -46 37
-63 52 -18 15 -36 28 -40 28 -4 0 -17 8 -28 18 -10 11 -32 25 -47 33 -15 8
-36 22 -46 32 -11 9 -26 17 -33 17 -7 0 -13 5 -13 10 0 6 -9 10 -20 10 -11 0
-20 5 -20 10 0 6 -5 10 -11 10 -5 0 -26 11 -46 25 -20 13 -40 22 -45 19 -4 -3
-8 -1 -8 4 0 5 -10 13 -23 17 -12 4 -24 8 -27 9 -3 1 -30 15 -60 31 -30 16
-59 29 -65 30 -5 1 -23 7 -39 13 -16 7 -36 14 -45 16 -9 2 -23 6 -31 9 -46 18
-232 27 -305 15 -100 -18 -275 -87 -275 -109 0 -5 -7 -9 -15 -9 -20 0 -132
-112 -166 -165 -54 -84 -63 -104 -107 -245 -23 -75 -19 -275 8 -384 33 -132
114 -314 163 -366 10 -11 15 -20 12 -20 -4 0 8 -18 25 -40 17 -22 28 -40 24
-40 -4 0 6 -13 22 -28 16 -15 42 -45 57 -65 58 -76 206 -216 311 -292 23 -16
43 -32 46 -35 3 -3 12 -9 21 -15 9 -5 40 -26 70 -46 30 -20 79 -49 109 -65 30
-16 58 -33 62 -39 5 -7 8 -7 8 0 0 7 3 7 8 0 6 -9 99 -58 112 -60 3 -1 27 -11
54 -23 27 -12 54 -22 62 -22 7 0 16 -5 19 -10 4 -6 10 -8 15 -5 5 3 11 1 14
-4 4 -5 32 -17 64 -26 31 -9 86 -25 122 -37 36 -11 74 -22 85 -23 11 -2 31 -6
45 -10 14 -4 35 -8 47 -10 11 -2 29 -6 40 -9 10 -3 32 -7 48 -10 17 -2 50 -8
75 -12 25 -4 70 -8 100 -9 74 -4 90 -24 84 -108 -3 -53 -11 -97 -20 -117 -1
-3 -5 -15 -9 -27 -4 -12 -14 -24 -22 -27 -8 -3 -12 -10 -9 -15 7 -11 -53 -30
-104 -31 -28 -2 -42 2 -85 19 -16 7 -38 14 -48 16 -9 2 -21 6 -26 9 -4 3 -42
8 -82 10 -103 7 -189 20 -339 50 -19 4 -42 8 -50 10 -8 2 -22 6 -30 9 -14 5
-44 12 -95 22 -11 2 -39 10 -62 19 -24 8 -43 13 -43 9 0 -3 -7 0 -15 7 -8 7
-15 10 -15 7 0 -3 -19 2 -42 12 -41 18 -77 32 -88 36 -23 8 -57 23 -130 58
-47 23 -88 40 -92 39 -5 -1 -8 2 -8 6 0 5 -16 14 -35 22 -19 8 -35 18 -35 22
0 5 -4 6 -10 3 -5 -3 -10 -1 -10 5 0 6 -4 8 -10 5 -5 -3 -10 -1 -10 4 0 6 -6
11 -14 11 -8 0 -33 11 -57 24 -24 14 -46 23 -51 20 -4 -3 -8 -1 -8 4 0 5 -10
13 -22 17 -13 4 -25 8 -28 10 -5 2 -12 4 -55 21 -11 4 -23 6 -27 6 -5 -1 -8 3
-8 10 0 6 -3 9 -6 5 -4 -3 -22 0 -42 9 -19 8 -37 12 -40 9 -3 -3 -11 0 -19 6
-7 6 -13 8 -13 5 0 -4 -10 -2 -21 5 -31 16 -187 19 -231 3 -21 -7 -38 -11 -38
-8 0 2 -13 -2 -29 -10 -16 -9 -31 -13 -33 -10 -3 2 -11 -2 -18 -11 -7 -8 -17
-15 -22 -15 -29 0 -193 -154 -182 -171 3 -5 1 -9 -3 -9 -5 0 -17 -13 -26 -30
-10 -16 -15 -30 -11 -30 3 0 2 -6 -4 -13 -14 -17 -41 -116 -50 -182 -12 -93
-6 -309 12 -395 36 -183 107 -361 177 -445 92 -110 252 -267 340 -335 18 -14
38 -31 45 -37 7 -7 17 -13 21 -13 5 0 18 -8 29 -18 37 -34 226 -142 249 -142
8 0 15 -4 15 -10 0 -5 9 -10 19 -10 11 0 23 -5 26 -10 4 -6 10 -8 15 -5 5 3
11 1 15 -5 4 -6 11 -8 16 -5 5 4 9 1 9 -4 0 -6 3 -10 8 -10 4 1 10 0 15 -1 4
-1 10 -3 15 -4 4 -1 32 -9 62 -18 30 -10 66 -19 80 -21 14 -3 36 -8 50 -11 33
-7 98 -17 135 -21 186 -17 275 -19 410 -11 57 4 170 16 200 22 11 3 36 7 55
10 19 3 42 7 50 9 8 2 29 7 47 10 17 3 84 21 150 40 65 19 129 38 142 41 13 3
34 10 45 16 24 13 26 14 78 24 36 6 37 6 47 -32 14 -49 14 -74 1 -74 -5 0 -10
-6 -10 -13 0 -8 -25 -36 -57 -63 -31 -27 -65 -57 -75 -67 -10 -9 -22 -17 -26
-17 -5 0 -17 -8 -28 -18 -38 -35 -250 -165 -274 -167 -3 -1 -26 -11 -52 -23
-26 -12 -52 -22 -57 -22 -6 0 -11 -4 -11 -8 0 -4 -8 -8 -18 -9 -9 -1 -30 -7
-47 -14 -16 -7 -34 -13 -40 -14 -5 -2 -35 -10 -66 -19 -31 -9 -66 -19 -78 -21
-11 -3 -31 -7 -44 -10 -12 -3 -35 -8 -52 -10 -16 -3 -37 -8 -45 -10 -8 -2 -35
-7 -60 -10 -25 -3 -56 -8 -70 -10 -14 -3 -41 -7 -60 -10 -19 -3 -53 -11 -75
-17 -22 -5 -47 -12 -55 -13 -8 -2 -16 -4 -17 -5 -2 -2 -7 -4 -13 -5 -5 -1 -13
-4 -17 -5 -5 -1 -12 -3 -18 -4 -5 -1 -23 -7 -38 -14 -16 -7 -30 -12 -33 -12
-12 0 -140 -64 -145 -72 -3 -5 -8 -8 -10 -7 -9 6 -117 -63 -155 -99 -8 -7 -14
-11 -14 -8 0 3 -18 -13 -40 -34 -39 -38 -107 -152 -113 -188 -1 -9 -6 -22 -9
-28 -38 -61 -26 -398 18 -485 7 -15 10 -29 7 -33 -4 -3 0 -6 7 -6 7 0 10 -3 7
-6 -8 -8 24 -64 36 -64 4 0 6 -4 2 -9 -3 -5 7 -19 21 -30 15 -12 23 -21 18
-21 -5 0 5 -12 21 -26 17 -14 40 -34 53 -45 12 -10 22 -16 22 -12 0 4 7 -2 15
-13 8 -10 15 -15 15 -11 0 4 9 -1 20 -11 11 -10 33 -25 48 -33 14 -8 35 -21
45 -29 10 -8 21 -15 25 -15 4 -1 18 -7 32 -15 14 -8 27 -15 30 -16 3 0 27 -11
54 -23 27 -13 56 -25 65 -26 9 -2 18 -4 21 -5 3 -1 8 -2 13 -1 4 0 7 -3 7 -7
0 -5 6 -9 13 -10 12 -1 47 -9 57 -12 3 -1 8 -2 12 -1 4 0 19 -4 33 -9 39 -15
147 -24 270 -24 145 1 225 11 355 45 41 11 82 21 90 23 22 6 130 46 165 61
113 50 164 75 170 85 3 6 10 8 14 6 4 -3 18 4 29 15 12 11 22 17 22 14 0 -3
33 16 72 42 78 51 81 53 116 82 12 10 38 29 57 42 19 13 35 30 35 38 0 8 3 11
6 8 4 -4 33 20 65 52 33 32 59 56 59 52 0 -3 4 0 8 7 5 6 36 43 70 81 70 77
124 110 148 91 8 -7 14 -9 14 -6 0 10 31 -23 76 -79 21 -27 47 -56 57 -63 9
-7 15 -17 12 -22 -3 -4 -2 -10 2 -12 9 -3 55 -56 118 -132 45 -54 265 -280
265 -272 0 3 15 -9 34 -27 53 -49 87 -77 94 -77 4 0 19 -11 34 -25 15 -14 32
-25 38 -25 5 0 10 -5 10 -11 0 -5 5 -7 10 -4 6 3 10 2 10 -2 0 -5 17 -17 38
-28 20 -11 39 -22 42 -25 12 -12 70 -40 83 -40 9 0 17 -5 19 -11 2 -5 11 -11
20 -12 22 -4 129 -71 152 -96 10 -11 23 -18 27 -15 5 3 9 0 9 -6 0 -7 7 -9 16
-6 8 3 13 2 10 -2 -3 -4 4 -14 16 -21 16 -10 19 -10 13 1 -3 7 0 5 9 -6 8 -10
27 -18 41 -18 14 0 25 -5 25 -10 0 -6 7 -8 15 -4 8 3 19 -3 25 -14 6 -12 18
-17 30 -15 11 2 18 0 15 -6 -4 -5 3 -9 14 -9 10 0 21 -5 23 -10 2 -6 13 -12
25 -14 12 -3 31 -10 42 -16 12 -6 21 -7 21 -3 0 4 4 2 8 -5 5 -7 17 -14 28
-16 10 -2 45 -13 77 -24 31 -11 57 -18 57 -15 0 3 6 1 13 -4 6 -6 37 -18 67
-27 30 -10 62 -20 70 -23 18 -8 15 -6 70 -22 25 -7 50 -14 55 -15 6 -1 16 -5
23 -9 6 -5 12 -5 12 -1 0 3 7 1 15 -6 8 -7 15 -10 15 -7 0 3 15 1 33 -4 26 -8
97 -23 197 -44 8 -2 26 -6 40 -9 44 -10 84 -17 120 -21 33 -4 53 -6 140 -20
39 -6 109 -12 220 -21 140 -11 445 -6 630 11 154 13 188 17 210 20 14 2 45 6
70 10 25 3 61 8 80 11 19 2 50 6 68 9 18 2 45 6 60 9 25 5 50 10 127 22 17 3
39 6 50 7 11 2 26 6 33 10 6 5 16 5 22 2 5 -3 15 -3 22 1 7 4 21 9 33 11 25 3
60 11 60 13 0 1 7 3 15 5 28 7 105 33 200 70 52 20 106 39 119 41 14 3 28 7
33 10 7 5 34 11 77 18 8 2 17 8 19 14 2 6 10 8 19 5 12 -5 14 -3 8 6 -6 10 -2
11 15 6 14 -4 20 -3 17 2 -4 6 4 8 19 5 15 -3 32 2 44 13 11 10 20 15 20 10 0
-4 6 -2 13 4 8 6 17 8 20 4 4 -3 7 -1 7 5 0 6 7 9 15 6 8 -4 15 -1 15 6 0 6 4
8 10 5 5 -3 22 3 37 15 16 11 39 22 53 25 14 3 30 11 36 20 6 8 14 12 17 8 4
-3 7 -1 7 5 0 7 6 12 14 12 8 0 23 11 34 25 11 14 25 25 31 25 6 0 11 5 11 11
0 5 4 8 9 4 5 -3 16 2 24 10 9 8 20 15 26 15 6 0 11 5 11 10 0 6 3 9 8 8 11
-4 162 92 162 103 0 6 5 7 10 4 6 -3 10 -3 10 2 0 4 20 21 45 36 25 16 45 33
45 38 0 5 6 9 13 9 7 0 23 10 34 23 12 12 42 39 67 61 70 59 324 316 312 316
-4 0 6 13 21 28 44 45 93 102 93 108 0 3 6 12 13 19 29 33 37 45 37 53 0 5 11
17 24 28 14 10 23 21 20 26 -3 4 0 8 6 8 6 0 14 8 17 18 4 9 12 22 17 28 6 6
24 27 39 47 48 61 120 58 165 -5 7 -10 18 -18 23 -18 6 0 24 -13 41 -30 16
-16 33 -30 37 -30 4 0 17 -9 29 -20 12 -12 22 -18 22 -15 0 4 9 -3 61 -50 9
-8 19 -15 22 -15 4 0 30 -17 59 -37 29 -21 48 -31 44 -23 -5 8 0 6 11 -5 21
-22 226 -127 293 -150 3 -1 12 -5 20 -8 63 -27 197 -63 265 -72 22 -3 63 -9
90 -13 135 -21 424 8 533 53 17 8 32 11 32 8 0 -3 6 0 13 6 8 6 16 8 19 5 4
-3 20 2 37 10 17 9 33 16 36 15 3 0 38 12 78 27 116 44 253 114 291 149 12 11
34 26 49 34 15 8 27 21 27 28 0 8 4 12 9 9 10 -7 141 135 141 154 0 5 4 10 8
12 18 7 75 144 87 209 3 13 8 38 11 54 7 31 7 171 0 215 -13 84 -21 119 -31
145 -30 78 -59 134 -71 139 -8 3 -14 11 -14 18 -1 17 -35 58 -49 58 -6 0 -11
7 -11 15 0 8 -7 15 -15 15 -8 0 -15 5 -15 10 0 6 -7 10 -15 10 -8 0 -15 4 -15
9 0 10 -121 66 -180 82 -53 15 -57 16 -93 22 -15 3 -36 8 -46 12 -11 3 -37 8
-58 11 -21 3 -54 7 -73 10 -19 3 -168 6 -330 8 -162 2 -313 7 -335 10 -22 4
-53 9 -70 11 -104 15 -331 82 -362 107 -7 6 -13 8 -13 4 0 -3 -18 5 -40 19
-22 14 -43 25 -47 25 -20 0 -93 47 -102 65 -29 56 -8 159 36 176 21 8 77 5
110 -6 35 -12 168 -19 338 -19 190 -1 275 5 420 28 17 3 47 8 69 11 21 4 48 9
60 11 11 3 35 7 51 10 17 3 37 8 45 11 8 3 24 8 35 10 11 2 27 6 35 10 8 3 24
8 35 10 11 2 27 6 35 10 8 3 24 8 35 10 10 2 23 9 27 16 4 6 8 9 8 5 0 -10 83
22 91 35 3 5 8 8 10 7 2 -1 18 4 34 11 17 7 33 12 38 11 4 -1 7 2 7 8 0 6 3 9
8 8 7 -2 151 80 162 92 3 3 30 23 60 45 30 22 65 49 76 60 12 11 51 48 88 82
36 34 66 66 66 71 0 5 11 15 25 22 14 7 23 15 21 17 -2 2 16 25 41 51 73 77
226 293 228 322 1 3 7 16 15 30 8 14 15 30 16 35 1 6 8 24 15 40 6 17 13 35
15 40 2 6 10 31 18 58 8 26 12 47 9 47 -3 0 -1 6 5 13 5 6 9 29 8 50 0 20 3
38 7 40 10 3 13 240 4 312 -5 44 -11 74 -21 110 -2 6 -6 27 -11 48 -4 20 -11
40 -16 43 -5 3 -7 10 -4 15 4 5 1 9 -5 9 -6 0 -9 4 -6 8 5 8 -29 81 -64 142
-20 34 -104 118 -121 122 -8 2 -17 7 -20 11 -3 5 -15 10 -25 12 -10 2 -19 4
-19 5 0 7 -179 23 -230 21 -54 -2 -116 -9 -140 -15 -69 -18 -126 -37 -164 -56
-52 -26 -141 -91 -141 -103 0 -4 -4 -6 -8 -3 -5 3 -20 -6 -34 -19 -14 -13 -28
-21 -31 -19 -3 3 -10 -4 -17 -15 -6 -12 -15 -19 -21 -16 -5 4 -9 1 -9 -5 0 -6
-4 -9 -9 -5 -6 3 -14 -3 -20 -12 -5 -10 -13 -17 -18 -17 -17 3 -33 -9 -26 -20
3 -6 3 -8 -2 -4 -8 7 -97 -40 -103 -54 -2 -5 -8 -6 -13 -2 -5 3 -9 0 -9 -6 0
-6 -4 -8 -10 -5 -5 3 -10 3 -10 -2 0 -4 -25 -19 -55 -33 -30 -14 -55 -29 -55
-33 0 -5 -4 -5 -10 -2 -5 3 -10 1 -10 -4 0 -6 -3 -10 -7 -9 -5 1 -48 -17 -98
-41 -89 -43 -175 -83 -185 -86 -3 -1 -23 -9 -45 -19 -77 -34 -90 -39 -97 -38
-5 1 -8 -3 -8 -8 0 -6 -9 -10 -20 -10 -11 0 -20 -5 -20 -12 0 -6 -3 -9 -6 -5
-4 3 -21 -1 -38 -10 -17 -9 -36 -18 -42 -19 -7 -1 -35 -13 -62 -27 -28 -14
-53 -23 -56 -20 -3 4 -6 1 -6 -5 0 -6 -17 -16 -37 -22 -21 -7 -46 -20 -57 -29
-10 -9 -21 -15 -25 -14 -3 2 -21 0 -39 -3 -43 -8 -79 11 -87 45 -3 14 -8 36
-10 49 -3 12 -7 32 -10 45 -4 17 -13 77 -17 116 -4 43 37 85 104 106 29 9 60
19 68 21 8 3 15 5 15 4 0 -1 121 45 160 61 17 7 32 13 35 14 5 1 80 36 155 71
17 8 37 18 45 23 8 5 44 27 80 47 36 21 66 42 68 46 2 4 9 8 16 8 7 0 25 11
39 24 14 13 28 21 31 19 3 -3 8 2 12 11 3 9 10 16 15 16 12 0 123 87 175 138
13 13 24 21 24 18 0 -8 150 144 205 208 57 66 145 195 177 258 12 24 26 49 32
57 5 7 11 18 12 25 2 6 15 40 30 76 15 36 27 71 27 78 0 6 4 12 8 12 4 0 10
17 14 38 5 20 10 42 12 47 27 82 43 293 28 365 -3 14 -8 41 -11 60 -13 76 -80
234 -106 251 -6 3 -9 9 -9 13 1 11 -54 85 -64 86 -5 0 -21 14 -35 30 -13 17
-30 30 -37 30 -7 0 -13 3 -13 8 0 6 -68 41 -92 48 -5 1 -10 3 -13 4 -3 1 -9 4
-15 5 -5 1 -11 3 -12 5 -3 2 -14 4 -68 15 -117 22 -371 25 -397 4 -2 -1 -6 -2
-10 -3 -54 -12 -212 -89 -225 -110 -4 -6 -8 -7 -8 -3 0 8 -180 -113 -214 -145
-11 -10 -24 -18 -29 -18 -5 0 -17 -8 -26 -18 -9 -10 -34 -31 -56 -47 -22 -17
-48 -38 -57 -49 -10 -10 -18 -16 -18 -13 0 5 -28 -19 -124 -107 -134 -122
-286 -283 -382 -403 -26 -32 -59 -71 -75 -86 -29 -28 -89 -45 -89 -25 0 6 -3
8 -6 5 -4 -3 -16 6 -28 21 -11 14 -19 27 -16 27 16 1 -93 125 -109 125 -6 0
-11 4 -11 10 0 11 -32 52 -75 94 -16 16 -23 26 -15 21 8 -4 -4 11 -28 33 -24
23 -41 42 -38 42 16 0 -309 309 -368 349 -12 8 -28 23 -37 33 -9 10 -19 18
-23 18 -5 0 -71 47 -116 83 -8 7 -33 23 -55 37 -22 13 -42 27 -45 31 -3 4 -12
9 -20 11 -8 2 -20 8 -27 13 -7 6 -18 15 -25 20 -14 10 -62 37 -138 77 -25 13
-48 28 -52 33 -4 6 -8 6 -8 2 0 -5 -13 1 -29 12 -16 12 -36 21 -45 21 -9 0
-16 5 -16 11 0 6 -7 8 -16 5 -8 -3 -12 -2 -9 4 3 6 2 10 -4 10 -5 0 -22 5 -38
12 -15 6 -30 12 -33 13 -3 1 -27 12 -55 24 -67 30 -301 118 -335 126 -8 2 -31
9 -50 15 -19 7 -48 15 -65 20 -106 29 -146 40 -167 44 -12 2 -45 10 -73 16
-27 7 -59 14 -70 15 -20 3 -48 9 -95 20 -14 3 -45 8 -70 11 -25 3 -56 8 -70
10 -14 2 -47 6 -75 9 -27 3 -70 8 -95 11 -50 7 -536 14 -542 9z"/>
</g>
</svg>
